<svg width="213" height="48" viewBox="0 0 213 48" fill="none" xmlns="http://www.w3.org/2000/svg">
<g clip-path="url(#clip0_108_190)">
<path d="M0 0.464996H45.27V14.055H0V0.464996ZM34.11 45.72H11.325C5.07038 45.72 0 40.6496 0 34.395V17.055H15V34.395H30.315V17.115H45.315V34.5C45.2423 40.6604 40.2703 45.639 34.11 45.72Z" fill="#1A171B"/>
<path d="M94.05 0.509979H100.62L116.7 34.5H108.15L105 27.885H89.85L86.73 34.5H78.24L94.05 0.509979ZM97.395 11.67L92.745 21.705H102.09L97.395 11.67Z" fill="#1A171B"/>
<path d="M172.29 2.32499V10.605C168.867 8.61831 165.022 7.47193 161.07 7.25999C158.222 7.11874 155.438 8.14217 153.36 10.095C151.376 12.1335 150.328 14.9039 150.465 17.745C150.33 20.5047 151.429 23.1815 153.465 25.05C155.729 26.9485 158.629 27.9186 161.58 27.765C165.309 27.5698 168.947 26.5449 172.23 24.765V33C168.477 34.1581 164.589 34.8236 160.665 34.98C155.688 35.0762 150.861 33.2742 147.165 29.94C143.604 26.8497 141.576 22.3546 141.615 17.64C141.549 12.8222 143.633 8.2254 147.3 5.09999C151.075 1.71247 155.999 -0.110976 161.07 -8.20355e-06C164.916 0.125375 168.711 0.91186 172.29 2.32499Z" fill="#1A171B"/>
<path d="M189.9 0.509979H196.5L212.565 34.5H204L200.82 27.825H185.715L182.595 34.5H174.09L189.9 0.509979ZM193.185 11.67L188.55 21.705H197.895L193.185 11.67Z" fill="#1A171B"/>
<path d="M144.87 32.13C143.298 30.7455 142.009 29.0697 141.075 27.195H128.88V0.509979H120.39V34.5H148.155C146.977 33.8318 145.876 33.0371 144.87 32.13Z" fill="#1A171B"/>
<path d="M81.18 0.509979H54.96V7.76998H63.96V34.56H72.465V7.76998H81.135L81.18 0.509979Z" fill="#1A171B"/>
<path d="M56.43 39.15V43.29C56.3918 43.5944 56.4764 43.9015 56.6649 44.1435C56.8534 44.3855 57.1305 44.5425 57.435 44.58H57.615C57.9334 44.5963 58.2451 44.4853 58.4815 44.2714C58.7179 44.0576 58.8595 43.7584 58.875 43.44C58.8824 43.3652 58.8824 43.2898 58.875 43.215V39.15H60.3V43.575C60.2693 44.1914 60.0493 44.7833 59.67 45.27C59.1534 45.805 58.4331 46.0942 57.69 46.065C57.0044 46.1266 56.3243 45.8981 55.815 45.435C55.3212 44.9646 55.0352 44.3168 55.02 43.635V39.135L56.43 39.15Z" fill="black"/>
<path d="M71.895 39.15V45.945H70.5L67.395 41.535V45.945H65.895V39.15H67.305L70.5 43.5V39.15H71.895Z" fill="black"/>
<path d="M78.915 39.15V45.945H77.415V39.15H78.915Z" fill="black"/>
<path d="M85.5 39.15L87.195 43.65L88.89 39.15H90.39L87.84 45.945H86.595L84 39.15H85.5Z" fill="black"/>
<path d="M99.375 39.15V40.5H96.99V41.85H99.375V43.155H96.99V44.58H99.375V45.93H95.52V39.15H99.375Z" fill="black"/>
<path d="M107.07 39.15C107.637 39.0705 108.211 39.2445 108.639 39.6258C109.066 40.0072 109.304 40.5573 109.29 41.13C109.281 41.5264 109.183 41.9159 109.005 42.27C108.794 42.6576 108.454 42.9598 108.045 43.125L109.965 45.945H108.27L106.5 43.35H106.32V45.945H104.82V39.15H107.07ZM106.335 40.395V42.15H106.68C107.415 42.15 107.805 41.865 107.805 41.19C107.805 40.515 107.415 40.35 106.68 40.35L106.335 40.395Z" fill="black"/>
<path d="M118.185 40.8C117.893 40.5671 117.538 40.4261 117.165 40.395C116.85 40.395 116.595 40.6502 116.595 40.965C116.595 41.295 116.88 41.58 117.495 41.805C117.853 41.9354 118.196 42.1065 118.515 42.315C119 42.6627 119.295 43.218 119.31 43.815C119.306 44.421 119.06 45.0001 118.625 45.423C118.191 45.8458 117.606 46.077 117 46.065C116.66 46.082 116.323 46.0041 116.025 45.84C115.589 45.6529 115.203 45.365 114.9 45L115.86 43.86C116.144 44.2425 116.572 44.4919 117.045 44.55C117.235 44.5319 117.414 44.453 117.555 44.325C117.7 44.1953 117.782 44.0095 117.78 43.815C117.78 43.41 117.45 43.125 116.655 42.84C115.86 42.555 115.74 42.51 115.41 42.06C115.214 41.7567 115.115 41.401 115.125 41.04C115.099 39.9661 115.928 39.0643 117 39H117.21C117.558 38.9877 117.904 39.0437 118.23 39.165C118.574 39.2836 118.887 39.4785 119.145 39.735L118.185 40.8Z" fill="black"/>
<path d="M126 39.15V45.945H124.5V39.15H126Z" fill="black"/>
<path d="M133.935 39.15C134.838 39.113 135.714 39.4642 136.342 40.1148C136.97 40.7655 137.289 41.6535 137.22 42.555C137.315 44.3177 135.981 45.8318 134.22 45.96H131.55V39.15H133.935ZM133.08 44.655H133.65C134.188 44.631 134.709 44.4541 135.15 44.145C135.53 43.7045 135.728 43.1362 135.705 42.555C135.755 41.8627 135.435 41.1956 134.865 40.8C134.486 40.6157 134.072 40.5135 133.65 40.5H133.08V44.655Z" fill="black"/>
<path d="M145.38 39.15L148.155 45.945H146.655L146.1 44.595H143.505L142.995 45.945H141.495L144.21 39.15H145.38ZM144 43.395H145.59L144.795 41.415L144 43.395Z" fill="black"/>
<path d="M155.685 39.15C156.593 39.1042 157.478 39.4514 158.112 40.1031C158.747 40.7549 159.07 41.6481 159 42.555C159.103 44.3206 157.764 45.8396 156 45.96H153.3V39.15H155.685ZM154.83 44.655H155.4C155.939 44.6361 156.461 44.4587 156.9 44.145C157.284 43.7059 157.488 43.1379 157.47 42.555C157.513 41.8604 157.189 41.1941 156.615 40.8C156.225 40.6167 155.801 40.5195 155.37 40.515H154.8L154.83 44.655Z" fill="black"/>
<path d="M167.475 38.64L164.805 48H164.01L166.68 38.7L167.475 38.64Z" fill="black"/>
<path d="M177.885 40.62C177.279 40.2853 176.597 40.1099 175.905 40.11C174.464 40.0676 173.255 41.1895 173.19 42.63C173.202 43.3342 173.493 44.0048 173.999 44.4943C174.506 44.9838 175.186 45.252 175.89 45.24H176.025C176.686 45.2259 177.33 45.0285 177.885 44.67V45.69C177.296 46.0085 176.634 46.1687 175.965 46.155C173.952 46.1887 172.287 44.5971 172.23 42.585C172.271 40.6144 173.889 39.0432 175.86 39.06C176.547 39.0569 177.226 39.2163 177.84 39.525V40.59L177.885 40.62Z" fill="black"/>
<path d="M184.125 39.375V42H187.29V39.45H188.205V46.08H187.29V42.84H184.125V46.005H183.225V39.375H184.125Z" fill="black"/>
<path d="M194.715 39.375V46.005H193.815V39.375H194.715Z" fill="black"/>
<path d="M201.465 39.375V45.105H203.61V46.005H200.61V39.375H201.465Z" fill="black"/>
<path d="M212.34 39.375V40.29H209.565V42H212.34V42.915H209.565V45.18H212.34V46.08H208.65V39.375H212.34Z" fill="black"/>
</g>
<defs>
<clipPath id="clip0_108_190">
<rect width="213" height="48" fill="white"/>
</clipPath>
</defs>
</svg>
