<svg width="24" height="18" viewBox="0 0 24 18" fill="none" xmlns="http://www.w3.org/2000/svg">
    <path
        d="M23.9054 8.12878C23.7976 7.82409 23.5773 7.58034 23.2679 7.43503L23.0335 7.32253L13.6257 7.32253C8.44605 7.32253 4.21323 7.31784 4.21323 7.30847C4.21323 7.30378 5.40386 6.10847 6.85698 4.65534C8.61011 2.90222 9.54292 1.93659 9.61792 1.79597C9.95542 1.17253 9.71167 0.431903 9.06948 0.108465C8.78355 -0.0321595 8.32417 -0.036847 8.04292 0.0990905C7.90698 0.164715 6.66011 1.38347 3.99292 4.05065C0.24761 7.80065 0.139797 7.91784 0.0694849 8.16159C-0.0289526 8.50378 -0.0242651 8.67253 0.0929224 8.99597C0.186672 9.25378 0.374172 9.45065 3.99761 13.0741C8.16948 17.2507 7.9773 17.0866 8.54917 17.0866C9.42573 17.0866 9.99292 16.2428 9.67886 15.4085C9.60386 15.2022 9.26167 14.8413 6.89448 12.4694L4.19448 9.76003L13.6585 9.75065L23.1273 9.73659L23.3195 9.63347C23.596 9.48815 23.8351 9.19753 23.9195 8.91159C24.0132 8.59753 24.0132 8.43815 23.9054 8.12878Z"
        fill="black" />
</svg>
    