<svg width="24" height="24" viewBox="0 0 24 24" fill="none" xmlns="http://www.w3.org/2000/svg">
<g clip-path="url(#clip0_245_1927)">
<path d="M11.0066 0.0516586C8.21289 0.281347 5.55039 1.52353 3.53477 3.53447C-1.15742 8.23135 -1.15742 15.7688 3.53477 20.4657C8.23164 25.1579 15.7691 25.1579 20.466 20.4657C25.1582 15.7688 25.1582 8.23135 20.466 3.53447C17.9582 1.03135 14.5129 -0.238966 11.0066 0.0516586ZM13.2285 1.57041C16.8426 1.99228 19.9176 4.17666 21.4785 7.44385C23.1801 10.9876 22.7301 15.3235 20.3348 18.4313C19.6457 19.3173 18.6895 20.2032 17.7426 20.8267C16.8051 21.4407 15.4035 22.022 14.2832 22.261C12.8395 22.5751 11.1613 22.5751 9.71758 22.261C8.59727 22.022 7.1957 21.4407 6.2582 20.8267C3.27227 18.872 1.50039 15.5813 1.50039 12.0001C1.50039 9.22978 2.54102 6.64697 4.45352 4.66885C6.1082 2.95791 8.32539 1.86103 10.7207 1.57041C11.4191 1.48603 12.516 1.48603 13.2285 1.57041Z" fill="white"/>
<path d="M10.5 7.5V10.5H7.5H4.5V12V13.5H7.5H10.5V16.5V19.5H12H13.5V16.5V13.5H16.5H19.5V12V10.5H16.5H13.5V7.5V4.5H12H10.5V7.5Z" fill="white"/>
</g>
<defs>
<clipPath id="clip0_245_1927">
<rect width="24" height="24" fill="white"/>
</clipPath>
</defs>
</svg>
