<svg width="24" height="24" viewBox="0 0 24 24" fill="none" xmlns="http://www.w3.org/2000/svg">
<path d="M2.34375 0.0843735C2.25469 0.126562 2.13281 0.234375 2.07656 0.323437L1.96875 0.482811V12V23.5172L2.07656 23.6766C2.13281 23.7656 2.25469 23.8734 2.34375 23.9156C2.49844 23.9953 2.93906 24 9.51563 24C16.0922 24 16.5328 23.9953 16.6875 23.9156C16.7766 23.8734 16.8984 23.7656 16.9547 23.6766L17.0625 23.5172V21.2391C17.0625 19.05 17.0578 18.9562 16.9688 18.8062C16.6828 18.3375 16.0125 18.3609 15.7641 18.8438C15.6563 19.05 15.6563 19.0781 15.6563 20.8219V22.5938H9.51563H3.375V12V1.40625H9.51563H15.6563V3.17812C15.6563 4.92188 15.6563 4.95 15.7641 5.15625C16.0125 5.63906 16.6828 5.6625 16.9688 5.19375C17.0578 5.04375 17.0625 4.95 17.0625 2.76094V0.482811L16.9547 0.323437C16.8984 0.234375 16.7766 0.126562 16.6875 0.0843735C16.5328 0.00468636 16.0922 0 9.51563 0C2.93906 0 2.49844 0.00468636 2.34375 0.0843735Z" fill="white"/>
<path d="M17.2969 7.65475C16.9406 7.84225 16.8141 8.28287 17.0203 8.62506C17.0766 8.71412 17.6813 9.35162 18.3656 10.0407L19.6125 11.2969H14.5125C9.53906 11.2969 9.4125 11.2969 9.23906 11.3907C9.04688 11.4891 8.85938 11.7891 8.85938 12.0001C8.85938 12.211 9.04688 12.511 9.23906 12.6094C9.4125 12.7032 9.53906 12.7032 14.5406 12.7032H19.6641L18.3422 14.0251C17.6203 14.7563 17.0016 15.3985 16.9734 15.4547C16.8938 15.6094 16.9125 15.8954 17.0109 16.0782C17.1375 16.3126 17.4609 16.4719 17.7281 16.4297C17.9203 16.3969 18.0422 16.2844 19.9125 14.4235C21.0047 13.336 21.9281 12.3891 21.9656 12.3188C22.05 12.1547 22.05 11.8454 21.9656 11.6813C21.9281 11.611 21.0141 10.6735 19.9359 9.60006C17.7141 7.37819 17.7563 7.411 17.2969 7.65475Z" fill="white"/>
</svg>
