<svg width="24" height="24" viewBox="0 0 24 24" fill="none" xmlns="http://www.w3.org/2000/svg">
<g clip-path="url(#clip0_370_2613)">
<path d="M11.6813 0.0796871C11.5781 0.126562 10.6031 1.20937 8.93906 3.1125C7.51406 4.73906 6.27656 6.15937 6.1875 6.27187C6.04688 6.45 6.02344 6.51094 6.02344 6.74531C6.02344 7.06875 6.15469 7.27969 6.44063 7.41094C6.61406 7.49062 6.77344 7.5 8.18906 7.5H9.75L9.75938 12.5109C9.77344 17.4937 9.77344 17.5266 9.87188 17.6531C9.92344 17.7234 10.0266 17.8266 10.0969 17.8781C10.2234 17.9719 10.2797 17.9766 12 17.9766C13.7203 17.9766 13.7766 17.9719 13.9031 17.8781C13.9734 17.8266 14.0766 17.7234 14.1281 17.6531C14.2266 17.5266 14.2266 17.4937 14.2406 12.5109L14.25 7.5L15.8109 7.49531C17.5406 7.49062 17.6016 7.48125 17.8313 7.2C17.9531 7.05 17.9766 6.98438 17.9766 6.75C17.9766 6.50625 17.9578 6.45469 17.8125 6.27187C17.7234 6.15937 16.4859 4.73906 15.0609 3.1125C13.2844 1.07812 12.4219 0.131248 12.3141 0.0749989C12.1078 -0.0187511 11.8781 -0.0187511 11.6813 0.0796871Z" fill="white"/>
<path d="M0.75918 19.6734L0.773242 22.8516L0.895117 23.1141C1.0498 23.4469 1.30293 23.7 1.63574 23.8547L1.89824 23.9766H11.9998H22.1014L22.3639 23.8547C22.6967 23.7 22.9498 23.4469 23.1045 23.1141L23.2264 22.8516L23.2404 19.6734L23.2545 16.5H21.7498H20.2498V18.75V21H11.9998H3.7498V18.75V16.5H2.2498H0.745117L0.75918 19.6734Z" fill="white"/>
</g>
<defs>
<clipPath id="clip0_370_2613">
<rect width="24" height="24" fill="white"/>
</clipPath>
</defs>
</svg>
