<svg width="77" height="96" viewBox="0 0 77 96" fill="none" xmlns="http://www.w3.org/2000/svg">
<path fill-rule="evenodd" clip-rule="evenodd" d="M51.7311 52.4069L25.6532 52.4198C18.513 52.3925 12.7286 46.6202 12.7206 39.4951L12.6946 19.7236H29.9253V39.4943H47.3075V19.7236H64.5381V38.6603C64.5532 38.9316 64.5634 39.2058 64.5634 39.4821C64.5634 46.5785 58.8294 52.3392 51.7311 52.4069ZM12.6946 16.2261H64.5381V0.714233H12.6946V16.2261Z" fill="white"/>
<path fill-rule="evenodd" clip-rule="evenodd" d="M51.7311 52.4069L25.6532 52.4198C18.513 52.3925 12.7286 46.6202 12.7206 39.4951L12.6946 19.7236H29.9253V39.4943H47.3075V19.7236H64.5381V38.6603C64.5533 38.9316 64.5634 39.2058 64.5634 39.4821C64.5634 46.5785 58.8294 52.3392 51.7311 52.4069ZM12.6946 16.2261H64.5381V0.714233H12.6946V16.2261Z" stroke="white" stroke-width="0.5"/>
<path fill-rule="evenodd" clip-rule="evenodd" d="M20.6733 61.3083L18.4113 66.1853H22.9814L20.6733 61.3083ZM19.0657 55.8858H22.2779L30.1115 72.439H25.9397L24.4021 69.187H17.0217L15.5159 72.439H11.3657L19.0657 55.8858Z" fill="white"/>
<path fill-rule="evenodd" clip-rule="evenodd" d="M57.189 56.7676V60.8027C55.1089 59.7282 53.2885 59.1899 51.7271 59.1899C50.1657 59.1899 48.9153 59.6527 47.9766 60.5774C47.0401 61.5007 46.5725 62.745 46.5725 64.3088C46.5725 65.7862 47.0653 66.9707 48.0517 67.8559C49.0365 68.7454 50.354 69.1872 52.0042 69.1872C53.4486 69.1872 55.1774 68.6878 57.189 67.6875V71.6959C54.9328 72.3429 53.0554 72.6674 51.551 72.6674C48.9651 72.6674 46.7674 71.8492 44.9621 70.2142C43.1554 68.5813 42.2521 66.5857 42.2521 64.2332C42.2521 61.8354 43.172 59.811 45.0126 58.1501C46.8547 56.4898 49.0899 55.6587 51.7271 55.6587C53.4263 55.6587 55.2467 56.03 57.189 56.7676Z" fill="white"/>
<path fill-rule="evenodd" clip-rule="evenodd" d="M67.3904 61.3083L65.1284 66.1853H69.6978L67.3904 61.3083ZM65.7821 55.8858H68.9943L76.8279 72.439H72.656L71.1185 69.187H63.7388L62.233 72.439H58.0828L65.7821 55.8858Z" fill="white"/>
<path fill-rule="evenodd" clip-rule="evenodd" d="M43.8226 71.2624C43.0217 70.5384 42.4105 69.7375 41.9632 68.8725H36.0272V55.8858H31.9124V72.439H45.4395C44.8709 72.1101 44.3291 71.7237 43.8226 71.2624Z" fill="white"/>
<path fill-rule="evenodd" clip-rule="evenodd" d="M12.776 55.8856H6.10352e-05V59.4054H4.37969V72.4388H8.52267V59.4054H12.763L12.776 55.8856Z" fill="white"/>
<path fill-rule="evenodd" clip-rule="evenodd" d="M4.48981 75.881H6.22434V80.363C6.22434 80.7796 6.35277 81.1136 6.60964 81.3669C6.8665 81.6202 7.20489 81.7461 7.62337 81.7461C8.10391 81.7461 8.47693 81.6195 8.74245 81.364C9.00725 81.11 9.14001 80.7501 9.14001 80.2845V75.881H10.8688V80.6249C10.8688 81.0416 10.7483 81.4734 10.508 81.9224C10.2677 82.3708 9.89761 82.714 9.39831 82.9515C8.8983 83.1904 8.33984 83.3092 7.72222 83.3092C6.60386 83.3092 5.78494 83.0293 5.26689 82.4694C4.74811 81.9095 4.48981 81.3208 4.48981 80.7034V75.881Z" fill="white"/>
<path fill-rule="evenodd" clip-rule="evenodd" d="M17.8415 75.881H19.5638V83.2092H17.8495L14.117 78.4653V83.2092H12.3572V75.881H14.0975L17.8415 80.5911V75.881Z" fill="white"/>
<mask id="mask0_123_79" style="mask-type:luminance" maskUnits="userSpaceOnUse" x="0" y="0" width="77" height="96">
<path d="M0 95.6508H77V0.650787H0V95.6508Z" fill="white"/>
</mask>
<g mask="url(#mask0_123_79)">
<path fill-rule="evenodd" clip-rule="evenodd" d="M20.9905 83.2089H22.7495V75.8807H20.9905V83.2089Z" fill="white"/>
</g>
<mask id="mask1_123_79" style="mask-type:luminance" maskUnits="userSpaceOnUse" x="0" y="0" width="77" height="96">
<path d="M0 95.6508H77V0.650787H0V95.6508Z" fill="white"/>
</mask>
<g mask="url(#mask1_123_79)">
<path fill-rule="evenodd" clip-rule="evenodd" d="M23.5862 75.881H25.3669L27.4312 80.7537L29.499 75.881H31.2826L28.1924 83.2092H26.6649L23.5862 75.881Z" fill="white"/>
</g>
<mask id="mask2_123_79" style="mask-type:luminance" maskUnits="userSpaceOnUse" x="0" y="0" width="77" height="96">
<path d="M0 95.6508H77V0.650787H0V95.6508Z" fill="white"/>
</mask>
<g mask="url(#mask2_123_79)">
<path fill-rule="evenodd" clip-rule="evenodd" d="M32.2246 75.881H36.8193V77.3326H33.9837V78.8114H36.8193V80.2399H33.9837V81.7576H36.8193V83.2092H32.2246V75.881Z" fill="white"/>
</g>
<mask id="mask3_123_79" style="mask-type:luminance" maskUnits="userSpaceOnUse" x="0" y="0" width="77" height="96">
<path d="M0 95.6508H77V0.650787H0V95.6508Z" fill="white"/>
</mask>
<g mask="url(#mask3_123_79)">
<path fill-rule="evenodd" clip-rule="evenodd" d="M39.9373 77.1868V79.0953H40.3176C41.2375 79.0953 41.6964 78.7592 41.6964 78.0856C41.6964 77.81 41.5766 77.5913 41.3371 77.4301C41.099 77.2681 40.7664 77.1868 40.3428 77.1868H39.9373ZM38.1653 75.8814H40.8544C41.6712 75.8814 42.3184 76.075 42.7931 76.4614C43.2679 76.8479 43.506 77.371 43.506 78.0288C43.506 78.4037 43.397 78.7945 43.1791 79.2004C42.9605 79.6055 42.5593 79.9236 41.9735 80.1539L44.2578 83.2088H42.2368L40.1242 80.3741H39.9244V83.2088H38.1653V75.8814Z" fill="white"/>
</g>
<mask id="mask4_123_79" style="mask-type:luminance" maskUnits="userSpaceOnUse" x="0" y="0" width="77" height="96">
<path d="M0 95.6508H77V0.650787H0V95.6508Z" fill="white"/>
</mask>
<g mask="url(#mask4_123_79)">
<path fill-rule="evenodd" clip-rule="evenodd" d="M50.0612 76.5451L48.9674 77.6225C48.3916 77.3173 47.9767 77.164 47.7249 77.164C47.5287 77.164 47.3613 77.2302 47.2198 77.3627C47.0792 77.4944 47.0092 77.652 47.0092 77.8347C47.0092 78.1953 47.3735 78.5083 48.1037 78.7724C48.6376 78.9768 49.0424 79.1618 49.3159 79.3273C49.5893 79.4935 49.8188 79.7224 50.002 80.016C50.1867 80.3103 50.2798 80.6291 50.2798 80.9702C50.2798 81.5999 49.9963 82.1468 49.4313 82.6125C48.8649 83.0766 48.1968 83.3091 47.4262 83.3091C46.5813 83.3091 45.7458 82.9514 44.9211 82.2375L46.077 81.0271C46.595 81.5071 47.0792 81.7467 47.5315 81.7467C47.7429 81.7467 47.9457 81.6618 48.1405 81.4934C48.3346 81.325 48.432 81.148 48.432 80.9623C48.432 80.5795 47.9825 80.2427 47.0835 79.9505C46.5698 79.7828 46.2054 79.6252 45.9897 79.4777C45.7746 79.3309 45.5935 79.1171 45.4463 78.8365C45.2984 78.5558 45.2256 78.268 45.2256 77.9736C45.2256 77.3231 45.4615 76.7949 45.9341 76.389C46.4067 75.9838 47.0229 75.7809 47.787 75.7809C48.6903 75.7809 49.4479 76.0356 50.0612 76.5451Z" fill="white"/>
</g>
<mask id="mask5_123_79" style="mask-type:luminance" maskUnits="userSpaceOnUse" x="0" y="0" width="77" height="96">
<path d="M0 95.6508H77V0.650787H0V95.6508Z" fill="white"/>
</mask>
<g mask="url(#mask5_123_79)">
<path fill-rule="evenodd" clip-rule="evenodd" d="M51.3268 83.2089H53.0866V75.8807H51.3268V83.2089Z" fill="white"/>
</g>
<mask id="mask6_123_79" style="mask-type:luminance" maskUnits="userSpaceOnUse" x="0" y="0" width="77" height="96">
<path d="M0 95.6508H77V0.650787H0V95.6508Z" fill="white"/>
</mask>
<g mask="url(#mask6_123_79)">
<path fill-rule="evenodd" clip-rule="evenodd" d="M56.328 77.2655V81.7913H57.025C57.7458 81.7913 58.3381 81.6143 58.8028 81.2617C59.2667 80.9076 59.4991 80.3182 59.4991 79.4921C59.4991 79.0121 59.3872 78.5868 59.1636 78.2169C58.9392 77.847 58.6152 77.5958 58.1902 77.4634C57.7652 77.3317 57.3605 77.2655 56.9745 77.2655H56.328ZM54.5566 75.8809H57.3417C58.5315 75.8809 59.489 76.2184 60.2141 76.8913C60.9392 77.5649 61.3021 78.4515 61.3021 79.554C61.3021 80.6586 60.9277 81.5438 60.1802 82.2102C59.432 82.8758 58.4363 83.209 57.1924 83.209H54.5566V75.8809Z" fill="white"/>
</g>
<mask id="mask7_123_79" style="mask-type:luminance" maskUnits="userSpaceOnUse" x="0" y="0" width="77" height="96">
<path d="M0 95.6508H77V0.650787H0V95.6508Z" fill="white"/>
</mask>
<g mask="url(#mask7_123_79)">
<path fill-rule="evenodd" clip-rule="evenodd" d="M65.1751 78.2811L64.2154 80.4407H66.1556L65.1751 78.2811ZM64.4947 75.881H65.8569L69.1824 83.2092H67.4118L66.7588 81.7692H63.6267L62.9852 83.2092H61.2247L64.4947 75.881Z" fill="white"/>
</g>
<mask id="mask8_123_79" style="mask-type:luminance" maskUnits="userSpaceOnUse" x="0" y="0" width="77" height="96">
<path d="M0 95.6508H77V0.650787H0V95.6508Z" fill="white"/>
</mask>
<g mask="url(#mask8_123_79)">
<path fill-rule="evenodd" clip-rule="evenodd" d="M72.026 77.2655V81.7913H72.723C73.4438 81.7913 74.0361 81.6143 74.5008 81.2617C74.9647 80.9076 75.1971 80.3182 75.1971 79.4921C75.1971 79.0121 75.0852 78.5868 74.8615 78.2169C74.6372 77.847 74.3132 77.5958 73.8882 77.4634C73.4632 77.3317 73.0585 77.2655 72.6725 77.2655H72.026ZM70.2546 75.8809H73.0397C74.2295 75.8809 75.187 76.2184 75.9121 76.8913C76.6372 77.5649 77.0001 78.4515 77.0001 79.554C77.0001 80.6586 76.6257 81.5438 75.8782 82.2102C75.13 82.8758 74.1343 83.209 72.8904 83.209H70.2546V75.8809Z" fill="white"/>
</g>
<mask id="mask9_123_79" style="mask-type:luminance" maskUnits="userSpaceOnUse" x="0" y="0" width="77" height="96">
<path d="M0 95.6508H77V0.650787H0V95.6508Z" fill="white"/>
</mask>
<g mask="url(#mask9_123_79)">
<path fill-rule="evenodd" clip-rule="evenodd" d="M33.0773 89.1811V90.1821C32.3774 89.8396 31.7338 89.669 31.1458 89.669C30.3918 89.669 29.7561 89.9123 29.2402 90.3973C28.7236 90.8831 28.4653 91.4796 28.4653 92.187C28.4653 92.9081 28.7301 93.5098 29.2583 93.9926C29.7857 94.4741 30.4473 94.7152 31.2432 94.7152C31.8204 94.7152 32.4315 94.5338 33.0773 94.1718V95.1836C32.4899 95.4945 31.8528 95.6507 31.1667 95.6507C30.1609 95.6507 29.3015 95.3117 28.588 94.6324C27.8744 93.9538 27.5179 93.1348 27.5179 92.177C27.5179 91.2357 27.8686 90.4297 28.5699 89.7597C29.272 89.089 30.1161 88.7536 31.1053 88.7536C31.7403 88.7536 32.3983 88.8961 33.0773 89.1811Z" fill="white"/>
</g>
<mask id="mask10_123_79" style="mask-type:luminance" maskUnits="userSpaceOnUse" x="0" y="0" width="77" height="96">
<path d="M0 95.6508H77V0.650787H0V95.6508Z" fill="white"/>
</mask>
<g mask="url(#mask10_123_79)">
<path fill-rule="evenodd" clip-rule="evenodd" d="M34.0581 88.9569H34.9449V91.4476H38.0481V88.9569H38.9248V95.4323H38.0481V92.322H34.9449V95.4323H34.0581V88.9569Z" fill="white"/>
</g>
<mask id="mask11_123_79" style="mask-type:luminance" maskUnits="userSpaceOnUse" x="0" y="0" width="77" height="96">
<path d="M0 95.6508H77V0.650787H0V95.6508Z" fill="white"/>
</mask>
<g mask="url(#mask11_123_79)">
<path fill-rule="evenodd" clip-rule="evenodd" d="M40.2111 95.432H41.0878V88.9567H40.2111V95.432Z" fill="white"/>
</g>
<mask id="mask12_123_79" style="mask-type:luminance" maskUnits="userSpaceOnUse" x="0" y="0" width="77" height="96">
<path d="M0 95.6508H77V0.650787H0V95.6508Z" fill="white"/>
</mask>
<g mask="url(#mask12_123_79)">
<path fill-rule="evenodd" clip-rule="evenodd" d="M42.5374 88.9569H43.414V94.5579H45.5288V95.4323H42.5374V88.9569Z" fill="white"/>
</g>
<mask id="mask13_123_79" style="mask-type:luminance" maskUnits="userSpaceOnUse" x="0" y="0" width="77" height="96">
<path d="M0 95.6508H77V0.650787H0V95.6508Z" fill="white"/>
</mask>
<g mask="url(#mask13_123_79)">
<path fill-rule="evenodd" clip-rule="evenodd" d="M46.2499 88.9569H49.8467V89.8414H47.1259V91.4584H49.8467V92.3321H47.1259V94.5579H49.8467V95.4323H46.2499V88.9569Z" fill="white"/>
</g>
<mask id="mask14_123_79" style="mask-type:luminance" maskUnits="userSpaceOnUse" x="0" y="0" width="77" height="96">
<path d="M0 95.6508H77V0.650787H0V95.6508Z" fill="white"/>
</mask>
<g mask="url(#mask14_123_79)">
<path fill-rule="evenodd" clip-rule="evenodd" d="M4.40851 85.6722H76.6883V85.0145H4.40851V85.6722Z" fill="white"/>
</g>
</svg>
